<svg width="32" height="33" viewBox="0 0 32 33" fill="none" xmlns="http://www.w3.org/2000/svg">
<ellipse cx="16.0002" cy="16.2251" rx="15.7846" ry="15.7846" fill="white"/>
<path d="M25.2357 12.3998C25.1922 11.4132 25.0327 10.7349 24.8041 10.1471C24.5683 9.52319 24.2056 8.96461 23.7303 8.50026C23.266 8.02868 22.7037 7.66225 22.087 7.43014C21.4959 7.20158 20.8211 7.04203 19.8344 6.99853C18.8404 6.95134 18.5249 6.94043 16.0037 6.94043C13.4826 6.94043 13.1671 6.95134 12.1767 6.99484C11.1901 7.03834 10.5117 7.19804 9.92412 7.42646C9.30007 7.66225 8.74149 8.025 8.27714 8.50026C7.80557 8.96461 7.43927 9.52687 7.20703 10.1435C6.97847 10.7349 6.81891 11.4095 6.77541 12.3961C6.72823 13.3902 6.71732 13.7057 6.71732 16.2269C6.71732 18.748 6.72823 19.0635 6.77173 20.0539C6.81523 21.0405 6.97493 21.7188 7.20349 22.3066C7.43927 22.9305 7.80557 23.4891 8.27714 23.9534C8.74149 24.425 9.30376 24.7915 9.92043 25.0236C10.5117 25.2521 11.1864 25.4117 12.1732 25.4552C13.1634 25.4988 13.4791 25.5096 16.0002 25.5096C18.5213 25.5096 18.8369 25.4988 19.8272 25.4552C20.8139 25.4117 21.4922 25.2521 22.0798 25.0236C23.3278 24.5411 24.3144 23.5544 24.7969 22.3066C25.0253 21.7153 25.185 21.0405 25.2285 20.0539C25.272 19.0635 25.2829 18.748 25.2829 16.2269C25.2829 13.7057 25.2792 13.3902 25.2357 12.3998ZM23.5635 19.9813C23.5236 20.8882 23.3713 21.3779 23.2443 21.7044C22.9323 22.5134 22.2902 23.1554 21.4813 23.4674C21.1548 23.5944 20.6615 23.7467 19.7582 23.7865C18.7788 23.8302 18.485 23.8409 16.0074 23.8409C13.5298 23.8409 13.2324 23.8302 12.2565 23.7865C11.3496 23.7467 10.8599 23.5944 10.5334 23.4674C10.1309 23.3186 9.76442 23.0828 9.467 22.7745C9.15866 22.4734 8.92287 22.1106 8.77408 21.7081C8.64712 21.3816 8.49479 20.8882 8.45498 19.985C8.41133 19.0056 8.40056 18.7117 8.40056 16.2341C8.40056 13.7565 8.41133 13.459 8.45498 12.4833C8.49479 11.5764 8.64712 11.0867 8.77408 10.7602C8.92287 10.3575 9.15866 9.99122 9.47068 9.69365C9.77165 9.38531 10.1344 9.14953 10.5371 9.00088C10.8636 8.87392 11.357 8.72159 12.2602 8.68163C13.2396 8.63813 13.5335 8.62722 16.011 8.62722C18.4923 8.62722 18.786 8.63813 19.7619 8.68163C20.6688 8.72159 21.1585 8.87392 21.485 9.00088C21.8875 9.14953 22.254 9.38531 22.5514 9.69365C22.8597 9.99476 23.0955 10.3575 23.2443 10.7602C23.3713 11.0867 23.5236 11.58 23.5635 12.4833C23.607 13.4627 23.618 13.7565 23.618 16.2341C23.618 18.7117 23.607 19.0019 23.5635 19.9813Z" fill="black"/>
<path d="M16.0037 11.4567C13.3702 11.4567 11.2336 13.5932 11.2336 16.2269C11.2336 18.8605 13.3702 20.997 16.0037 20.997C18.6374 20.997 20.7739 18.8605 20.7739 16.2269C20.7739 13.5932 18.6374 11.4567 16.0037 11.4567ZM16.0037 19.3211C14.2953 19.3211 12.9094 17.9355 12.9094 16.2269C12.9094 14.5182 14.2953 13.1326 16.0037 13.1326C17.7123 13.1326 19.098 14.5182 19.098 16.2269C19.098 17.9355 17.7123 19.3211 16.0037 19.3211Z" fill="black"/>
<path d="M22.0763 11.2681C22.0763 11.883 21.5776 12.3817 20.9625 12.3817C20.3475 12.3817 19.8489 11.883 19.8489 11.2681C19.8489 10.653 20.3475 10.1545 20.9625 10.1545C21.5776 10.1545 22.0763 10.653 22.0763 11.2681Z" fill="black"/>
</svg>
