<svg width="33" height="32" viewBox="0 0 33 32" fill="none" xmlns="http://www.w3.org/2000/svg">
<ellipse cx="16.249" cy="15.9985" rx="15.7846" ry="15.7846" fill="black"/>
<path d="M25.4846 12.1733C25.4411 11.1866 25.2816 10.5083 25.053 9.92053C24.8172 9.29663 24.4545 8.73805 23.9792 8.2737C23.5149 7.80212 22.9526 7.43568 22.3359 7.20358C21.7447 6.97502 21.07 6.81547 20.0833 6.77196C19.0893 6.72478 18.7737 6.71387 16.2526 6.71387C13.7315 6.71387 13.4159 6.72478 12.4256 6.76828C11.4389 6.81178 10.7606 6.97148 10.173 7.1999C9.54894 7.43568 8.99036 7.79844 8.52602 8.2737C8.05444 8.73805 7.68815 9.30031 7.4559 9.91699C7.22734 10.5083 7.06779 11.1829 7.02428 12.1696C6.9771 13.1636 6.96619 13.4792 6.96619 16.0003C6.96619 18.5214 6.9771 18.837 7.0206 19.8273C7.0641 20.814 7.2238 21.4923 7.45236 22.0801C7.68815 22.704 8.05444 23.2625 8.52602 23.7269C8.99036 24.1985 9.55263 24.5649 10.1693 24.797C10.7606 25.0256 11.4352 25.1851 12.422 25.2286C13.4122 25.2723 13.7279 25.283 16.2491 25.283C18.7702 25.283 19.0857 25.2723 20.0761 25.2286C21.0627 25.1851 21.7411 25.0256 22.3287 24.797C23.5766 24.3145 24.5633 23.3279 25.0458 22.0801C25.2742 21.4887 25.4339 20.814 25.4774 19.8273C25.5209 18.837 25.5318 18.5214 25.5318 16.0003C25.5318 13.4792 25.5281 13.1636 25.4846 12.1733ZM23.8124 19.7548C23.7725 20.6616 23.6201 21.1514 23.4932 21.4778C23.1811 22.2868 22.5391 22.9288 21.7301 23.2409C21.4037 23.3678 20.9104 23.5201 20.0071 23.56C19.0277 23.6036 18.7339 23.6144 16.2563 23.6144C13.7787 23.6144 13.4812 23.6036 12.5054 23.56C11.5985 23.5201 11.1088 23.3678 10.7823 23.2409C10.3797 23.0921 10.0133 22.8563 9.71587 22.5479C9.40753 22.2468 9.17174 21.8841 9.02296 21.4815C8.89599 21.155 8.74367 20.6616 8.70385 19.7584C8.6602 18.779 8.64944 18.4851 8.64944 16.0075C8.64944 13.5299 8.6602 13.2325 8.70385 12.2567C8.74367 11.3499 8.89599 10.8601 9.02296 10.5337C9.17174 10.131 9.40753 9.76466 9.71955 9.46709C10.0205 9.15875 10.3833 8.92296 10.786 8.77432C11.1125 8.64736 11.6059 8.49503 12.509 8.45507C13.4885 8.41157 13.7824 8.40066 16.2598 8.40066C18.7411 8.40066 19.0349 8.41157 20.0108 8.45507C20.9176 8.49503 21.4074 8.64736 21.7338 8.77432C22.1364 8.92296 22.5028 9.15875 22.8003 9.46709C23.1086 9.7682 23.3444 10.131 23.4932 10.5337C23.6201 10.8601 23.7725 11.3534 23.8124 12.2567C23.8559 13.2362 23.8668 13.5299 23.8668 16.0075C23.8668 18.4851 23.8559 18.7753 23.8124 19.7548Z" fill="white"/>
<path d="M16.2526 11.2301C13.6191 11.2301 11.4824 13.3667 11.4824 16.0003C11.4824 18.6339 13.6191 20.7705 16.2526 20.7705C18.8862 20.7705 21.0228 18.6339 21.0228 16.0003C21.0228 13.3667 18.8862 11.2301 16.2526 11.2301ZM16.2526 19.0946C14.5441 19.0946 13.1583 17.7089 13.1583 16.0003C13.1583 14.2917 14.5441 12.906 16.2526 12.906C17.9612 12.906 19.3469 14.2917 19.3469 16.0003C19.3469 17.7089 17.9612 19.0946 16.2526 19.0946Z" fill="white"/>
<path d="M22.3251 11.0415C22.3251 11.6565 21.8265 12.1551 21.2114 12.1551C20.5964 12.1551 20.0978 11.6565 20.0978 11.0415C20.0978 10.4264 20.5964 9.92789 21.2114 9.92789C21.8265 9.92789 22.3251 10.4264 22.3251 11.0415Z" fill="white"/>
</svg>
