<svg width="33" height="32" viewBox="0 0 33 32" fill="none" xmlns="http://www.w3.org/2000/svg">
<ellipse cx="16.5526" cy="15.9984" rx="15.7846" ry="15.7846" fill="black"/>
<g clip-path="url(#clip0)">
<path d="M25.7192 7.74843H7.38593C6.37479 7.74843 5.55258 8.57064 5.55258 9.58178V22.4151C5.55258 23.4262 6.37479 24.2484 7.38593 24.2484H25.7193C26.7304 24.2484 27.5526 23.4262 27.5526 22.4151V9.58178C27.5526 8.57064 26.7304 7.74843 25.7192 7.74843ZM7.38593 8.66508H25.7193C25.7868 8.66508 25.8463 8.6897 25.9097 8.70362C24.3225 10.1563 19.0595 14.971 17.2177 16.6304C17.0736 16.7602 16.8413 16.9151 16.5526 16.9151C16.2639 16.9151 16.0316 16.7602 15.887 16.63C14.0454 14.9708 8.78216 10.1558 7.19519 8.70371C7.2587 8.68979 7.31834 8.66508 7.38593 8.66508ZM6.46923 22.4151V9.58178C6.46923 9.49197 6.4963 9.4105 6.52054 9.32843C7.73535 10.4403 11.4076 13.7998 13.7888 15.9651C11.4154 18.0038 7.74214 21.4864 6.51766 22.654C6.49605 22.576 6.46923 22.4998 6.46923 22.4151ZM25.7192 23.3318H7.38593C7.31271 23.3318 7.24761 23.3063 7.17925 23.2899C8.44455 22.0837 12.1412 18.5812 14.4729 16.5864C14.7768 16.8621 15.0545 17.1136 15.2734 17.3108C15.6511 17.6519 16.0933 17.8318 16.5526 17.8318C17.0118 17.8318 17.454 17.6518 17.8313 17.3112C18.0503 17.1139 18.3282 16.8623 18.6323 16.5864C20.9641 18.5809 24.6602 22.0832 25.9259 23.2899C25.8576 23.3063 25.7925 23.3318 25.7192 23.3318ZM26.6359 22.4151C26.6359 22.4998 26.6091 22.576 26.5875 22.654C25.3626 21.4858 21.6898 18.0036 19.3164 15.9651C21.6977 13.7998 25.3694 10.4406 26.5846 9.32835C26.6089 9.41042 26.6359 9.49193 26.6359 9.58173V22.4151Z" fill="white"/>
</g>
<defs>
<clipPath id="clip0">
<rect x="5.55258" y="4.99843" width="22" height="22" fill="white"/>
</clipPath>
</defs>
</svg>
