<svg width="33" height="33" viewBox="0 0 33 33" fill="none" xmlns="http://www.w3.org/2000/svg">
<ellipse cx="16.3037" cy="16.2251" rx="15.7846" ry="15.7846" fill="white"/>
<g clip-path="url(#clip0)">
<path d="M25.4704 7.9751H7.13706C6.12592 7.9751 5.30371 8.7973 5.30371 9.80845V22.6418C5.30371 23.6529 6.12592 24.4751 7.13706 24.4751H25.4704C26.4815 24.4751 27.3037 23.6529 27.3037 22.6418V9.80845C27.3037 8.7973 26.4815 7.9751 25.4704 7.9751ZM7.13706 8.89175H25.4704C25.538 8.89175 25.5975 8.91637 25.6608 8.93029C24.0736 10.3829 18.8106 15.1977 16.9689 16.8571C16.8248 16.9869 16.5925 17.1418 16.3038 17.1418C16.015 17.1418 15.7828 16.9869 15.6382 16.8567C13.7966 15.1975 8.53329 10.3825 6.94632 8.93038C7.00983 8.91646 7.06947 8.89175 7.13706 8.89175ZM6.22036 22.6418V9.80845C6.22036 9.71864 6.24743 9.63717 6.27167 9.5551C7.48648 10.667 11.1588 14.0264 13.5399 16.1918C11.1665 18.2305 7.49327 21.713 6.26879 22.8807C6.24718 22.8027 6.22036 22.7265 6.22036 22.6418ZM25.4704 23.5584H7.13706C7.06384 23.5584 6.99874 23.5329 6.93038 23.5166C8.19568 22.3104 11.8923 18.8078 14.224 16.8131C14.5279 17.0888 14.8056 17.3402 15.0245 17.5374C15.4023 17.8785 15.8445 18.0584 16.3037 18.0584C16.763 18.0584 17.2052 17.8785 17.5825 17.5379C17.8014 17.3406 18.0793 17.0889 18.3834 16.8131C20.7153 18.8076 24.4114 22.3099 25.677 23.5166C25.6087 23.5329 25.5437 23.5584 25.4704 23.5584ZM26.3871 22.6418C26.3871 22.7264 26.3602 22.8027 26.3387 22.8807C25.1137 21.7124 21.4409 18.2303 19.0675 16.1918C21.4488 14.0265 25.1205 10.6673 26.3358 9.55502C26.36 9.63709 26.3871 9.7186 26.3871 9.8084V22.6418Z" fill="black"/>
</g>
<defs>
<clipPath id="clip0">
<rect x="5.30371" y="5.2251" width="22" height="22" fill="white"/>
</clipPath>
</defs>
</svg>
