<svg width="70" height="250" viewBox="0 0 70 250" fill="none" xmlns="http://www.w3.org/2000/svg">
<path fill-rule="evenodd" clip-rule="evenodd" d="M5 10C7.76147 10 10 7.76147 10 5C10 2.23853 7.76147 0 5 0C2.23853 0 0 2.23853 0 5C0 7.76147 2.23853 10 5 10ZM65 10C67.7615 10 70 7.76147 70 5C70 2.23853 67.7615 0 65 0C62.2385 0 60 2.23853 60 5C60 7.76147 62.2385 10 65 10ZM10 65C10 67.7615 7.76147 70 5 70C2.23853 70 0 67.7615 0 65C0 62.2385 2.23853 60 5 60C7.76147 60 10 62.2385 10 65ZM65 70C67.7615 70 70 67.7615 70 65C70 62.2385 67.7615 60 65 60C62.2385 60 60 62.2385 60 65C60 67.7615 62.2385 70 65 70ZM10 125C10 127.761 7.76147 130 5 130C2.23853 130 0 127.761 0 125C0 122.239 2.23853 120 5 120C7.76147 120 10 122.239 10 125ZM65 130C67.7615 130 70 127.761 70 125C70 122.239 67.7615 120 65 120C62.2385 120 60 122.239 60 125C60 127.761 62.2385 130 65 130ZM10 185C10 187.761 7.76147 190 5 190C2.23853 190 0 187.761 0 185C0 182.239 2.23853 180 5 180C7.76147 180 10 182.239 10 185ZM65 190C67.7615 190 70 187.761 70 185C70 182.239 67.7615 180 65 180C62.2385 180 60 182.239 60 185C60 187.761 62.2385 190 65 190ZM10 245C10 247.761 7.76147 250 5 250C2.23853 250 0 247.761 0 245C0 242.239 2.23853 240 5 240C7.76147 240 10 242.239 10 245ZM65 250C67.7615 250 70 247.761 70 245C70 242.239 67.7615 240 65 240C62.2385 240 60 242.239 60 245C60 247.761 62.2385 250 65 250Z" fill="#080808"/>
</svg>
