<svg width="240" height="371" viewBox="0 0 240 371" fill="none" xmlns="http://www.w3.org/2000/svg">
<circle cx="54.9536" cy="5.66138" r="5" fill="#080808"/>
<circle cx="114.954" cy="5.66138" r="5" fill="#080808"/>
<circle cx="174.954" cy="5.66138" r="5" fill="#080808"/>
<circle cx="234.954" cy="5.66138" r="5" fill="#080808"/>
<circle cx="54.9536" cy="65.6614" r="5" fill="#080808"/>
<circle cx="114.954" cy="65.6614" r="5" fill="#080808"/>
<circle cx="174.954" cy="65.6614" r="5" fill="#080808"/>
<circle cx="234.954" cy="65.6614" r="5" fill="#080808"/>
<circle cx="54.9536" cy="125.661" r="5" fill="#080808"/>
<circle cx="114.954" cy="125.661" r="5" fill="#080808"/>
<circle cx="174.954" cy="125.661" r="5" fill="#080808"/>
<circle cx="234.954" cy="125.661" r="5" fill="#080808"/>
<circle cx="54.9536" cy="185.661" r="5" fill="#080808"/>
<circle cx="114.954" cy="185.661" r="5" fill="#080808"/>
<circle cx="174.954" cy="185.661" r="5" fill="#080808"/>
<circle cx="234.954" cy="185.661" r="5" fill="#080808"/>
<circle cx="54.9536" cy="245.661" r="5" fill="#080808"/>
<circle cx="114.954" cy="245.661" r="5" fill="#080808"/>
<circle cx="174.954" cy="245.661" r="5" fill="#080808"/>
<circle cx="234.954" cy="245.661" r="5" fill="#080808"/>
<circle cx="54.9536" cy="305.661" r="5" fill="#080808"/>
<circle cx="114.954" cy="305.661" r="5" fill="#080808"/>
<circle cx="174.954" cy="305.661" r="5" fill="#080808"/>
<circle cx="234.954" cy="305.661" r="5" fill="#080808"/>
<circle cx="54.9536" cy="365.661" r="5" fill="#080808"/>
<circle cx="114.954" cy="365.661" r="5" fill="#080808"/>
<circle cx="174.954" cy="365.661" r="5" fill="#080808"/>
<circle cx="234.954" cy="365.661" r="5" fill="#080808"/>
</svg>
